<svg width="26" height="22" viewBox="0 0 26 22" fill="none" xmlns="http://www.w3.org/2000/svg">
<path d="M2.51138 6.10257C1.41397 6.45914 0.833352 7.66825 1.19369 8.77725L4.53004 19.0455C4.89037 20.1545 6.07331 20.7991 7.17072 20.4426L23.4886 15.1405C24.586 14.784 25.1641 13.5671 24.8038 12.4581L21.4675 2.18991C21.1071 1.08091 19.9267 0.443994 18.8293 0.800562L2.51138 6.10257ZM2.83271 7.09154L19.1506 1.78953C19.297 1.74198 19.4488 1.73923 19.5927 1.7569L14.0899 11.899C13.8373 12.3644 13.3632 12.5185 12.8846 12.2906L2.45586 7.32501C2.56188 7.22614 2.68637 7.13908 2.83271 7.09154ZM2.16045 8.335L9.52763 11.8438L5.78534 19.1758C5.66915 19.0543 5.57677 18.9019 5.519 18.7241L2.18265 8.45592C2.16961 8.41577 2.16931 8.3749 2.16045 8.335ZM20.4254 2.40037C20.4419 2.43777 20.4653 2.47113 20.4784 2.51128L23.8147 12.7795C23.8716 12.9547 23.8834 13.1292 23.8622 13.2937L16.5405 9.55661L20.4254 2.40037ZM16.0455 10.4777L23.2136 14.1365C23.1981 14.1416 23.183 14.1465 23.1673 14.1516L6.84938 19.4536C6.83628 19.4578 6.82367 19.4619 6.81076 19.4661L10.4696 12.2979L12.4381 13.23C13.3767 13.6771 14.5072 13.3109 15.0033 12.3966L16.0455 10.4777Z" fill="white"/>
</svg>
